<?xml version="1.0" standalone="no"?>
<!DOCTYPE svg PUBLIC "-//W3C//DTD SVG 20010904//EN"
 "http://www.w3.org/TR/2001/REC-SVG-20010904/DTD/svg10.dtd">
<svg version="1.0" xmlns="http://www.w3.org/2000/svg"
 width="700.000000pt" height="700.000000pt" viewBox="0 0 700.000000 700.000000"
 preserveAspectRatio="xMidYMid meet">
<metadata>
Created by potrace 1.11, written by Peter Selinger 2001-2013
</metadata>
<g transform="translate(0.000000,700.000000) scale(0.100000,-0.100000)"
fill="#000000" stroke="none">
<path d="M1467 4518 c-14 -8 -17 -2027 -4 -2035 6 -3 3848 -7 4052 -3 l30 0 0
1020 c0 900 -2 1020 -15 1021 -105 5 -4055 2 -4063 -3z m4063 -1018 l0 -1010
-1007 2 -1008 3 -1 1008 0 1007 1008 0 1008 0 0 -1010z m-2835 559 c82 -18
182 -49 200 -62 15 -11 13 -21 -20 -107 -55 -144 -58 -151 -75 -146 -8 3 -49
17 -90 32 -154 55 -301 40 -308 -33 -5 -46 29 -72 206 -161 171 -85 238 -139
275 -219 18 -40 22 -66 22 -153 0 -95 -3 -111 -28 -162 -48 -97 -152 -173
-279 -203 -91 -21 -329 -14 -422 13 -103 30 -106 35 -111 186 -3 98 -1 128 9
132 7 3 37 -4 66 -16 80 -32 239 -70 291 -70 130 0 190 74 118 148 -17 18 -90
61 -162 97 -154 78 -257 150 -257 182 0 3 -6 14 -14 22 -41 46 -53 215 -21
309 39 116 175 203 340 219 33 3 61 6 63 8 6 5 153 -6 197 -16z"/>
<path d="M4456 4069 c-134 -20 -244 -83 -297 -169 -49 -79 -57 -245 -15 -335
40 -88 102 -139 278 -227 85 -43 163 -88 175 -100 65 -69 11 -137 -113 -142
-70 -3 -249 36 -311 67 -73 37 -70 44 -69 -115 l1 -143 40 -19 c167 -79 457
-77 616 5 24 12 69 48 100 80 68 69 92 133 92 244 1 181 -58 244 -372 402 -85
43 -154 103 -149 129 1 9 16 26 31 38 52 38 215 28 325 -21 67 -29 67 -30 115
92 52 131 51 130 22 149 -14 9 -25 14 -25 12 0 -3 -24 3 -53 13 -108 37 -286
55 -391 40z"/>
</g>
</svg>
