<?xml version="1.0" standalone="no"?>
<!DOCTYPE svg PUBLIC "-//W3C//DTD SVG 20010904//EN"
 "http://www.w3.org/TR/2001/REC-SVG-20010904/DTD/svg10.dtd">
<svg version="1.0" xmlns="http://www.w3.org/2000/svg"
 width="700.000000pt" height="700.000000pt" viewBox="0 0 700.000000 700.000000"
 preserveAspectRatio="xMidYMid meet">
<metadata>
Created by potrace 1.11, written by Peter Selinger 2001-2013
</metadata>
<g transform="translate(0.000000,700.000000) scale(0.100000,-0.100000)"
fill="#000000" stroke="none">
<path d="M27 5432 l-27 -3 2 -1752 3 -1752 3497 0 3498 0 0 1753 0 1752 -1187
0 c-654 0 -2216 1 -3473 3 -1257 1 -2297 1 -2313 -1z m6959 -1752 c0 -1189 -3
-1730 -11 -1731 -5 0 -784 -1 -1730 -1 l-1720 -1 -1 1724 c-1 948 1 1727 3
1731 2 4 781 8 1731 8 l1728 0 0 -1730z m-4950 766 c102 -20 304 -84 304 -96
0 -9 -54 -158 -75 -205 -7 -16 -21 -50 -31 -75 -9 -25 -20 -48 -23 -52 -4 -4
-52 8 -108 28 -183 63 -336 78 -411 39 -53 -27 -68 -80 -36 -134 19 -32 29
-38 275 -162 247 -125 311 -175 366 -286 38 -76 38 -78 38 -197 0 -67 -4 -137
-8 -156 -25 -112 -140 -250 -257 -307 -190 -93 -446 -111 -698 -47 -52 13
-117 34 -146 47 l-52 24 2 192 c1 106 4 194 6 196 2 2 47 -14 100 -36 164 -65
299 -94 428 -92 152 3 228 94 156 187 -20 26 -69 56 -211 125 -275 135 -355
195 -414 316 -92 187 -51 436 93 563 45 39 112 79 176 103 47 18 62 21 160 39
68 12 275 4 366 -14z"/>
<path d="M5229 4466 c-2 -2 -29 -6 -59 -10 -92 -10 -134 -23 -228 -68 -183
-88 -272 -261 -245 -475 14 -111 45 -182 112 -255 65 -71 148 -123 356 -224
199 -97 233 -129 225 -209 -3 -29 -48 -73 -88 -86 -112 -37 -329 1 -569 99
l-53 22 -1 -28 c0 -15 -1 -103 -2 -197 l-2 -169 68 -29 c188 -78 464 -102 652
-56 22 5 51 12 64 15 66 14 179 81 242 144 106 105 141 203 135 375 -4 104 -5
110 -25 160 -22 58 -36 80 -81 126 -61 63 -123 101 -335 205 -204 101 -255
140 -255 196 0 125 204 139 486 33 36 -14 70 -23 74 -20 14 9 140 303 140 327
0 21 -173 80 -320 108 -51 11 -283 23 -291 16z"/>
</g>
</svg>
